<?xml version="1.0" encoding="UTF-8"?>
<svg id="Capa_1" data-name="Capa 1" xmlns="http://www.w3.org/2000/svg" version="1.1" viewBox="0 0 500 500">
  <defs>
    <style>
      .cls-1 {
        fill: #090c9b;
      }

      .cls-1, .cls-2 {
        stroke-width: 0px;
      }

      .cls-2 {
        fill: #fff;
      }
    </style>
  </defs>
  <g>
    <g>
      <circle class="cls-1" cx="249.99" cy="112.23" r="9.53"/>
      <circle class="cls-1" cx="211.88" cy="174.15" r="9.53"/>
      <circle class="cls-1" cx="288.1" cy="140.81" r="9.53"/>
      <circle class="cls-1" cx="226.17" cy="121.75" r="4.76"/>
      <circle class="cls-1" cx="273.81" cy="121.75" r="4.76"/>
      <circle class="cls-1" cx="216.64" cy="193.21" r="4.76"/>
      <circle class="cls-1" cx="283.34" cy="169.4" r="14.31"/>
      <path class="cls-1" d="M264.58,131.27c-3-.09-5.7,1.21-7.51,3.3h0s-10.2,8.03-20.16,3.82c-2.21-.94-7.05-7.96-16.02-7.12-7.43.7-13.51,6.33-13.77,13.78-.24,6.82,4.3,12.62,10.53,14.31,0,0,0,0,0,0,0,0,0,0,0,0,13.69,5.24,7.4,19.01,8.58,25.29.86,4.54,4.26,8.24,8.88,8.52,5.53.34,10.04-4.05,10.13-9.51.04-2.24-.06-5.73-4.79-9.21,0,0-13-6.56-6.95-21.26,0,0,5.75-11.46,22.85-5.69,1.02.34,2,.8,2.95,1.31,2.26,1.23,4.39,1.49,4.4,1.5v-.02c.18.01.38.02.57.02,5.28,0,9.55-4.29,9.53-9.57-.02-5.1-4.13-9.33-9.23-9.48Z"/>
      <path class="cls-1" d="M225.87,217.03c3,.09,5.7-1.21,7.51-3.3h0s11.45-10.77,26.31-.17c2.83,2.02,6.09,3.61,9.87,3.47,7.46-.27,13.51-6.33,13.77-13.78.24-6.82-2.17-10.85-10.53-14.31,0,0,0,0,0,0,0,0,0,0,0,0-3.57-.8-10.21-5.07-9.14-19.36.08-1.08.26-2.15.45-3.22.16-.87.2-1.77.11-2.7-.47-4.6-4.26-8.24-8.88-8.52-5.53-.34-10.13,4.05-10.13,9.51,0,3.84,2.2,6.09,5.54,8.65h0s11.71,10.24,6.19,21.82c0,0-.5,1.31-1.24,2.46-2.02,2.85-7.04,6.75-18.91,3.87-2.17-.53-4.27-1.33-6.29-2.29s-3.75-1.16-3.76-1.17v.02c-.18-.01-.38-.02-.57-.02-5.28,0-9.55,4.29-9.53,9.57.02,5.1,4.13,9.33,9.23,9.48Z"/>
      <circle class="cls-1" cx="249.99" cy="231.31" r="14.31"/>
    </g>
    <g>
      <path class="cls-1" d="M247.3,352.29l6.42-14.41c7.99,6.42,20.68,10.98,32.95,10.98,15.55,0,22.11-5.56,22.11-12.98,0-21.54-59.34-7.42-59.34-44.5,0-16.12,12.84-29.81,40.22-29.81,11.98,0,24.53,3.14,33.23,8.84l-5.85,14.41c-8.99-5.28-18.83-7.85-27.53-7.85-15.4,0-21.68,5.99-21.68,13.55,0,21.25,59.19,7.42,59.19,44.08,0,15.98-12.98,29.67-40.37,29.67-15.55,0-31.1-4.85-39.37-11.98Z"/>
      <path class="cls-1" d="M342.99,261.57h18.54v102.7h-18.54v-102.7Z"/>
      <g>
        <path class="cls-1" d="M138.47,386.8c0-6.12,4.7-10.5,11.02-10.5,3.51,0,6.44,1.28,8.35,3.6l-3.02,2.78c-1.36-1.57-3.07-2.38-5.1-2.38-3.8,0-6.49,2.67-6.49,6.49s2.7,6.49,6.49,6.49c2.03,0,3.74-.81,5.1-2.41l3.02,2.78c-1.91,2.35-4.84,3.62-8.38,3.62-6.29,0-10.99-4.38-10.99-10.5Z"/>
        <path class="cls-1" d="M159.92,386.8c0-6.03,4.7-10.5,11.1-10.5s11.1,4.44,11.1,10.5-4.73,10.5-11.1,10.5-11.1-4.47-11.1-10.5ZM177.38,386.8c0-3.86-2.73-6.49-6.35-6.49s-6.35,2.64-6.35,6.49,2.73,6.49,6.35,6.49,6.35-2.64,6.35-6.49Z"/>
        <path class="cls-1" d="M197.15,397.3l-3.91-5.85h-4.32v5.85h-4.7v-20.99h8.79c5.42,0,8.81,2.91,8.81,7.62,0,3.15-1.54,5.46-4.18,6.63l4.55,6.75h-5.05ZM192.75,380.27h-3.83v7.32h3.83c2.87,0,4.32-1.38,4.32-3.66s-1.45-3.66-4.32-3.66Z"/>
        <path class="cls-1" d="M221.88,383.93c0,4.68-3.39,7.59-8.81,7.59h-4.09v5.79h-4.7v-20.99h8.78c5.42,0,8.81,2.91,8.81,7.62ZM217.13,383.93c0-2.31-1.45-3.66-4.32-3.66h-3.83v7.29h3.83c2.87,0,4.32-1.35,4.32-3.63Z"/>
        <path class="cls-1" d="M223.97,386.8c0-6.03,4.7-10.5,11.1-10.5s11.1,4.44,11.1,10.5-4.73,10.5-11.1,10.5-11.1-4.47-11.1-10.5ZM241.43,386.8c0-3.86-2.73-6.49-6.35-6.49s-6.35,2.64-6.35,6.49,2.73,6.49,6.35,6.49,6.35-2.64,6.35-6.49Z"/>
        <path class="cls-1" d="M261.2,397.3l-3.91-5.85h-4.32v5.85h-4.7v-20.99h8.78c5.42,0,8.81,2.91,8.81,7.62,0,3.15-1.54,5.46-4.18,6.63l4.55,6.75h-5.05ZM256.79,380.27h-3.83v7.32h3.83c2.87,0,4.32-1.38,4.32-3.66s-1.45-3.66-4.32-3.66Z"/>
        <path class="cls-1" d="M283.65,392.8h-9.42l-1.8,4.5h-4.81l9.05-20.99h4.64l9.08,20.99h-4.93l-1.8-4.5ZM282.18,389.11l-3.22-8.04-3.22,8.04h6.44Z"/>
        <path class="cls-1" d="M290.38,386.8c0-6.12,4.7-10.5,11.02-10.5,3.51,0,6.44,1.28,8.35,3.6l-3.02,2.78c-1.36-1.57-3.07-2.38-5.1-2.38-3.8,0-6.49,2.67-6.49,6.49s2.7,6.49,6.49,6.49c2.03,0,3.74-.81,5.1-2.41l3.02,2.78c-1.91,2.35-4.84,3.62-8.38,3.62-6.29,0-10.99-4.38-10.99-10.5Z"/>
        <path class="cls-1" d="M311.84,376.31h4.7v20.99h-4.7v-20.99Z"/>
        <path class="cls-1" d="M318.62,386.8c0-6.03,4.7-10.5,11.1-10.5s11.1,4.44,11.1,10.5-4.73,10.5-11.1,10.5-11.1-4.47-11.1-10.5ZM336.07,386.8c0-3.86-2.73-6.49-6.35-6.49s-6.35,2.64-6.35,6.49,2.73,6.49,6.35,6.49,6.35-2.64,6.35-6.49ZM331,370.83h4.87l-5.25,4.18h-3.54l3.91-4.18Z"/>
        <path class="cls-1" d="M361.53,376.31v20.99h-3.86l-10.12-12.75v12.75h-4.64v-20.99h3.89l10.09,12.75v-12.75h4.64Z"/>
      </g>
      <path class="cls-1" d="M184.91,306.27v17.6h28.84v19c-6.42,3.71-13.38,5.14-20.51,5.14-21.11,0-36.09-14.83-36.09-35.09s14.98-35.09,36.23-35.09c10.7,0,19.68,3.57,27.53,11.41l10.44-11.41c-9.41-10.7-22.13-16.26-38.82-16.26-31.24,0-54.06,21.54-54.06,51.35s22.82,51.35,53.77,51.35c14.12,0,28.69-4.28,39.11-12.69v-45.3h-46.44Z"/>
    </g>
  </g>
</svg>