<?xml version="1.0" encoding="UTF-8"?>
<svg id="Capa_1" data-name="Capa 1" xmlns="http://www.w3.org/2000/svg" version="1.1" viewBox="0 0 500 500">
  <defs>
    <style>
      .cls-1 {
        fill: #090c9b;
      }

      .cls-1, .cls-2 {
        stroke-width: 0px;
      }

      .cls-2 {
        fill: #fff;
      }
    </style>
  </defs>
  <rect class="cls-2" width="500" height="500"/>
  <g>
    <g>
      <circle class="cls-1" cx="135.1" cy="190.46" r="9.16"/>
      <circle class="cls-1" cx="98.46" cy="249.99" r="9.16"/>
      <circle class="cls-1" cx="171.74" cy="217.94" r="9.16"/>
      <circle class="cls-1" cx="112.2" cy="199.62" r="4.58"/>
      <circle class="cls-1" cx="158" cy="199.62" r="4.58"/>
      <circle class="cls-1" cx="103.04" cy="268.32" r="4.58"/>
      <circle class="cls-1" cx="167.16" cy="245.43" r="13.75"/>
      <path class="cls-1" d="M149.12,208.77c-2.89-.09-5.48,1.16-7.22,3.18h0s-9.81,7.72-19.39,3.67c-2.13-.9-6.77-7.65-15.4-6.84-7.14.67-12.99,6.08-13.24,13.25-.23,6.56,4.14,12.13,10.13,13.76,0,0,0,0,0,0,0,0,0,0,0,0,13.16,5.04,7.12,18.28,8.25,24.31.82,4.37,4.09,7.92,8.53,8.19,5.32.33,9.65-3.89,9.74-9.14.04-2.15-.05-5.51-4.6-8.86,0,0-12.5-6.31-6.68-20.44,0,0,5.53-11.01,21.97-5.47.98.33,1.92.77,2.83,1.26,2.18,1.18,4.22,1.43,4.23,1.44v-.02c.18.01.36.02.55.02,5.07,0,9.18-4.12,9.16-9.2s-3.97-8.97-8.87-9.12Z"/>
      <path class="cls-1" d="M111.91,291.22c2.89.09,5.48-1.16,7.22-3.18h0s11-10.35,25.29-.17c2.72,1.94,5.86,3.47,9.49,3.34,7.17-.26,12.99-6.08,13.24-13.25.23-6.56-2.08-10.43-10.13-13.76,0,0,0,0,0,0,0,0,0,0,0,0-3.44-.77-9.82-4.88-8.79-18.61.08-1.04.25-2.07.43-3.1.15-.83.19-1.7.1-2.6-.45-4.42-4.09-7.92-8.53-8.19-5.32-.33-9.74,3.89-9.74,9.14,0,3.69,2.12,5.86,5.33,8.32h0s11.26,9.84,5.95,20.98c0,0-.48,1.26-1.19,2.37-1.94,2.74-6.77,6.49-18.18,3.72-2.09-.51-4.1-1.28-6.05-2.2s-3.6-1.12-3.61-1.13v.02c-.18-.01-.36-.02-.55-.02-5.07,0-9.18,4.12-9.16,9.2s3.97,8.97,8.87,9.12Z"/>
      <circle class="cls-1" cx="135.1" cy="304.95" r="13.75"/>
    </g>
    <g>
      <path class="cls-1" d="M300.88,287.85l6.17-13.85c7.68,6.17,19.88,10.56,31.68,10.56,14.95,0,21.26-5.35,21.26-12.48,0-20.71-57.05-7.13-57.05-42.79,0-15.5,12.34-28.66,38.67-28.66,11.52,0,23.59,3.02,31.95,8.5l-5.62,13.85c-8.64-5.07-18.1-7.54-26.47-7.54-14.81,0-20.84,5.76-20.84,13.03,0,20.43,56.91,7.13,56.91,42.38,0,15.36-12.48,28.52-38.81,28.52-14.95,0-29.9-4.66-37.85-11.52Z"/>
      <path class="cls-1" d="M392.87,200.63h17.83v98.74h-17.83v-98.74Z"/>
      <path class="cls-1" d="M240.89,243.61v16.92h27.73v18.27c-6.17,3.57-12.86,4.94-19.72,4.94-20.3,0-34.7-14.26-34.7-33.74s14.4-33.74,34.83-33.74c10.29,0,18.93,3.43,26.47,10.97l10.03-10.97c-9.05-10.29-21.28-15.63-37.32-15.63-30.03,0-51.97,20.71-51.97,49.37s21.94,49.37,51.7,49.37c13.58,0,27.59-4.11,37.6-12.21v-43.56h-44.65Z"/>
    </g>
  </g>
</svg>