<svg xmlns="http://www.w3.org/2000/svg" width="500" height="500" viewBox="0 0 500 500" version="1.1" style="background-color: transparent;">
  <defs>
    <radialGradient id="instagram_gradient" cx="150" cy="450" r="550" gradientUnits="userSpaceOnUse">
      <stop offset="0" stop-color="#FED576"/> <stop offset="0.1" stop-color="#F47F35"/> <stop offset="0.25" stop-color="#E24371"/> <stop offset="0.5" stop-color="#C72D8E"/> <stop offset="0.8" stop-color="#8034B4"/> <stop offset="1" stop-color="#4B5EDC"/> </radialGradient>
    
    <style>
      .ins-gradient {
        fill: url(#instagram_gradient);
        stroke-width: 0px;
      }
      .ins-white {
        fill: #FFFFFF; /* Blanco para la cámara */
        stroke-width: 0px;
      }
    </style>
  </defs>
  
  <rect class="ins-gradient" x="0" y="0" width="500" height="500" rx="110" ry="110"/>
  
  <g class="ins-white">
    <path d="M358.3,91.7H141.7C114.2,91.7,91.7,114.2,91.7,141.7v216.7c0,27.5,22.5,50,50,50h216.7 c27.5,0,50-22.5,50-50V141.7C408.3,114.2,385.8,91.7,358.3,91.7z M375,358.3c0,9.2-7.5,16.7-16.7,16.7H141.7 c-9.2,0-16.7-7.5-16.7-16.7V141.7c0-9.2,7.5-16.7,16.7-16.7h216.7c9.2,0,16.7,7.5,16.7,16.7V358.3z"/>
    <path d="M250,170.8c-43.7,0-79.2,35.5-79.2,79.2s35.5,79.2,79.2,79.2s79.2-35.5,79.2-79.2S293.7,170.8,250,170.8z M250,295.8 c-25.3,0-45.8-20.5-45.8-45.8s20.5-45.8,45.8-45.8s45.8,20.5,45.8,45.8S275.3,295.8,250,295.8z"/>
    <circle cx="341.7" cy="158.3" r="18.3"/>
  </g>
</svg>
