<?xml version="1.0" encoding="UTF-8"?>
<svg id="Capa_1" data-name="Capa 1" xmlns="http://www.w3.org/2000/svg" version="1.1" viewBox="0 0 500 500">
  <defs>
    <style>
      .cls-1 {
        fill: #090c9b;
      }

      .cls-1, .cls-2 {
        stroke-width: 0px;
      }

      .cls-2 {
        fill: #fff;
      }
    </style>
  </defs>
  <g>
    <g>
      <circle class="cls-1" cx="135.1" cy="190.46" r="9.16"/>
      <circle class="cls-1" cx="98.46" cy="249.99" r="9.16"/>
      <circle class="cls-1" cx="171.74" cy="217.94" r="9.16"/>
      <circle class="cls-1" cx="112.2" cy="199.62" r="4.58"/>
      <circle class="cls-1" cx="158" cy="199.62" r="4.58"/>
      <circle class="cls-1" cx="103.04" cy="268.32" r="4.58"/>
      <circle class="cls-1" cx="167.16" cy="245.43" r="13.75"/>
      <path class="cls-1" d="M149.12,208.77c-2.89-.09-5.48,1.16-7.22,3.18h0s-9.81,7.72-19.39,3.67c-2.13-.9-6.77-7.65-15.4-6.84-7.14.67-12.99,6.08-13.24,13.25-.23,6.56,4.14,12.13,10.13,13.76,0,0,0,0,0,0,0,0,0,0,0,0,13.16,5.04,7.12,18.28,8.25,24.31.82,4.37,4.09,7.92,8.53,8.19,5.32.33,9.65-3.89,9.74-9.14.04-2.15-.05-5.51-4.6-8.86,0,0-12.5-6.31-6.68-20.44,0,0,5.53-11.01,21.97-5.47.98.33,1.92.77,2.83,1.26,2.18,1.18,4.22,1.43,4.23,1.44v-.02c.18.01.36.02.55.02,5.07,0,9.18-4.12,9.16-9.2s-3.97-8.97-8.87-9.12Z"/>
      <path class="cls-1" d="M111.91,291.22c2.89.09,5.48-1.16,7.22-3.18h0s11-10.35,25.29-.17c2.72,1.94,5.86,3.47,9.49,3.34,7.17-.26,12.99-6.08,13.24-13.25.23-6.56-2.08-10.43-10.13-13.76,0,0,0,0,0,0,0,0,0,0,0,0-3.44-.77-9.82-4.88-8.79-18.61.08-1.04.25-2.07.43-3.1.15-.83.19-1.7.1-2.6-.45-4.42-4.09-7.92-8.53-8.19-5.32-.33-9.74,3.89-9.74,9.14,0,3.69,2.12,5.86,5.33,8.32h0s11.26,9.84,5.95,20.98c0,0-.48,1.26-1.19,2.37-1.94,2.74-6.77,6.49-18.18,3.72-2.09-.51-4.1-1.28-6.05-2.2s-3.6-1.12-3.61-1.13v.02c-.18-.01-.36-.02-.55-.02-5.07,0-9.18,4.12-9.16,9.2s3.97,8.97,8.87,9.12Z"/>
      <circle class="cls-1" cx="135.1" cy="304.95" r="13.75"/>
    </g>
    <g>
      <path class="cls-1" d="M196.24,305.16c0-5.88,4.52-10.09,10.59-10.09,3.37,0,6.19,1.23,8.03,3.46l-2.9,2.68c-1.31-1.51-2.95-2.29-4.91-2.29-3.65,0-6.24,2.56-6.24,6.24s2.59,6.24,6.24,6.24c1.95,0,3.6-.78,4.91-2.31l2.9,2.68c-1.84,2.26-4.66,3.48-8.06,3.48-6.05,0-10.57-4.21-10.57-10.09Z"/>
      <path class="cls-1" d="M216.87,305.16c0-5.8,4.52-10.09,10.68-10.09s10.68,4.27,10.68,10.09-4.54,10.09-10.68,10.09-10.68-4.29-10.68-10.09ZM233.65,305.16c0-3.71-2.62-6.24-6.11-6.24s-6.1,2.54-6.1,6.24,2.62,6.24,6.1,6.24,6.11-2.54,6.11-6.24Z"/>
      <path class="cls-1" d="M252.66,315.25l-3.76-5.62h-4.15v5.62h-4.52v-20.18h8.45c5.21,0,8.47,2.8,8.47,7.32,0,3.03-1.48,5.25-4.01,6.37l4.38,6.49h-4.85ZM248.42,298.87h-3.68v7.03h3.68c2.76,0,4.15-1.33,4.15-3.52s-1.39-3.52-4.15-3.52Z"/>
      <path class="cls-1" d="M276.44,302.39c0,4.5-3.26,7.29-8.47,7.29h-3.93v5.56h-4.52v-20.18h8.45c5.21,0,8.47,2.8,8.47,7.32ZM271.87,302.39c0-2.22-1.39-3.52-4.15-3.52h-3.68v7.01h3.68c2.76,0,4.15-1.3,4.15-3.49Z"/>
      <path class="cls-1" d="M278.45,305.16c0-5.8,4.52-10.09,10.68-10.09s10.68,4.27,10.68,10.09-4.54,10.09-10.68,10.09-10.68-4.29-10.68-10.09ZM295.23,305.16c0-3.71-2.62-6.24-6.1-6.24s-6.11,2.54-6.11,6.24,2.62,6.24,6.11,6.24,6.1-2.54,6.1-6.24Z"/>
      <path class="cls-1" d="M314.24,315.25l-3.76-5.62h-4.15v5.62h-4.52v-20.18h8.45c5.21,0,8.47,2.8,8.47,7.32,0,3.03-1.48,5.25-4.01,6.37l4.38,6.49h-4.85ZM310,298.87h-3.68v7.03h3.68c2.76,0,4.15-1.33,4.15-3.52s-1.39-3.52-4.15-3.52Z"/>
      <path class="cls-1" d="M335.83,310.92h-9.06l-1.73,4.32h-4.63l8.7-20.18h4.46l8.73,20.18h-4.74l-1.73-4.32ZM334.41,307.38l-3.09-7.73-3.09,7.73h6.19Z"/>
      <path class="cls-1" d="M342.29,305.16c0-5.88,4.52-10.09,10.59-10.09,3.37,0,6.19,1.23,8.03,3.46l-2.9,2.68c-1.31-1.51-2.96-2.29-4.91-2.29-3.65,0-6.24,2.56-6.24,6.24s2.59,6.24,6.24,6.24c1.95,0,3.6-.78,4.91-2.31l2.9,2.68c-1.84,2.26-4.65,3.48-8.06,3.48-6.05,0-10.56-4.21-10.56-10.09Z"/>
      <path class="cls-1" d="M362.92,295.06h4.52v20.18h-4.52v-20.18Z"/>
      <path class="cls-1" d="M369.45,305.16c0-5.8,4.52-10.09,10.68-10.09s10.68,4.27,10.68,10.09-4.54,10.09-10.68,10.09-10.68-4.29-10.68-10.09ZM386.23,305.16c0-3.71-2.62-6.24-6.11-6.24s-6.1,2.54-6.1,6.24,2.62,6.24,6.1,6.24,6.11-2.54,6.11-6.24ZM381.35,289.8h4.68l-5.05,4.01h-3.4l3.76-4.01Z"/>
      <path class="cls-1" d="M410.7,295.06v20.18h-3.71l-9.73-12.25v12.25h-4.46v-20.18h3.74l9.7,12.25v-12.25h4.46Z"/>
    </g>
    <g>
      <path class="cls-1" d="M300.88,271.97l6.17-13.85c7.68,6.17,19.88,10.56,31.68,10.56,14.95,0,21.26-5.35,21.26-12.48,0-20.71-57.05-7.13-57.05-42.79,0-15.5,12.34-28.66,38.67-28.66,11.52,0,23.59,3.02,31.95,8.5l-5.62,13.85c-8.64-5.07-18.1-7.54-26.47-7.54-14.81,0-20.84,5.76-20.84,13.03,0,20.43,56.91,7.13,56.91,42.38,0,15.36-12.48,28.52-38.81,28.52-14.95,0-29.9-4.66-37.85-11.52Z"/>
      <path class="cls-1" d="M392.87,184.75h17.83v98.74h-17.83v-98.74Z"/>
      <path class="cls-1" d="M240.89,227.73v16.92h27.73v18.27c-6.17,3.57-12.86,4.94-19.72,4.94-20.3,0-34.7-14.26-34.7-33.74s14.4-33.74,34.83-33.74c10.29,0,18.92,3.43,26.47,10.97l10.03-10.97c-9.05-10.29-21.28-15.63-37.32-15.63-30.03,0-51.97,20.71-51.97,49.37s21.94,49.37,51.7,49.37c13.58,0,27.59-4.11,37.6-12.21v-43.56h-44.65Z"/>
    </g>
  </g>
</svg>