<?xml version="1.0" encoding="UTF-8"?>
<svg id="Capa_1" data-name="Capa 1" xmlns="http://www.w3.org/2000/svg" version="1.1" viewBox="0 0 500 500">
  <defs>
    <style>
      .cls-1 {
        fill: #090c9b;
      }

      .cls-1, .cls-2 {
        stroke-width: 0px;
      }

      .cls-2 {
        fill: #fff;
      }
    </style>
  </defs>
  <rect class="cls-2" width="500" height="500"/>
  <g>
    <g>
      <circle class="cls-1" cx="249.99" cy="120.17" r="10.2"/>
      <circle class="cls-1" cx="209.18" cy="186.47" r="10.2"/>
      <circle class="cls-1" cx="290.79" cy="150.77" r="10.2"/>
      <circle class="cls-1" cx="224.49" cy="130.37" r="5.1"/>
      <circle class="cls-1" cx="275.49" cy="130.37" r="5.1"/>
      <circle class="cls-1" cx="214.29" cy="206.87" r="5.1"/>
      <circle class="cls-1" cx="285.7" cy="181.39" r="15.32"/>
      <path class="cls-1" d="M265.61,140.56c-3.22-.1-6.11,1.3-8.04,3.54h0s-10.92,8.6-21.59,4.09c-2.37-1-7.54-8.52-17.15-7.62-7.95.74-14.47,6.78-14.75,14.76-.25,7.3,4.61,13.51,11.28,15.33,0,0,0,0,0,0,0,0,0,0,.01,0,14.65,5.62,7.93,20.35,9.19,27.07.92,4.87,4.56,8.82,9.5,9.13,5.93.36,10.75-4.34,10.85-10.18.04-2.4-.06-6.13-5.12-9.86,0,0-13.92-7.03-7.44-22.77,0,0,6.16-12.27,24.47-6.09,1.09.37,2.14.86,3.16,1.41,2.43,1.32,4.7,1.6,4.71,1.6v-.02c.2.01.4.02.61.02,5.65,0,10.22-4.59,10.2-10.24s-4.43-9.99-9.88-10.15Z"/>
      <path class="cls-1" d="M224.16,232.38c3.22.1,6.11-1.3,8.04-3.54h0s12.25-11.53,28.17-.19c3.03,2.16,6.53,3.86,10.57,3.72,7.98-.29,14.47-6.78,14.75-14.76.25-7.3-2.32-11.62-11.28-15.33,0,0,0,0,0,0,0,0,0,0-.01,0-3.83-.86-10.93-5.43-9.79-20.73.09-1.16.27-2.31.48-3.45.17-.93.22-1.9.11-2.9-.51-4.93-4.56-8.82-9.5-9.13-5.93-.36-10.85,4.33-10.85,10.18,0,4.11,2.36,6.52,5.94,9.27h0s12.54,10.96,6.63,23.37c0,0-.54,1.41-1.33,2.64-2.16,3.05-7.54,7.22-20.25,4.15-2.33-.56-4.57-1.42-6.73-2.45s-4.01-1.25-4.03-1.25v.02c-.2-.01-.4-.02-.61-.02-5.65,0-10.22,4.59-10.2,10.24s4.43,9.99,9.88,10.15Z"/>
      <circle class="cls-1" cx="249.99" cy="247.67" r="15.32"/>
    </g>
    <path class="cls-1" d="M247.11,377.21l6.87-15.43c8.55,6.87,22.15,11.76,35.28,11.76,16.65,0,23.67-5.96,23.67-13.9,0-23.06-63.53-7.94-63.53-47.65,0-17.26,13.75-31.92,43.07-31.92,12.83,0,26.27,3.36,35.59,9.47l-6.26,15.43c-9.62-5.65-20.16-8.4-29.48-8.4-16.49,0-23.21,6.41-23.21,14.51,0,22.76,63.38,7.94,63.38,47.19,0,17.11-13.9,31.77-43.22,31.77-16.65,0-33.29-5.19-42.15-12.83Z"/>
    <path class="cls-1" d="M349.57,280.07h19.85v109.96h-19.85v-109.96Z"/>
    <path class="cls-1" d="M180.3,327.94v18.84h30.88v20.35c-6.87,3.97-14.32,5.5-21.96,5.5-22.6,0-38.64-15.88-38.64-37.57s16.04-37.57,38.79-37.57c11.45,0,21.08,3.82,29.48,12.22l11.17-12.22c-10.08-11.45-23.7-17.41-41.57-17.41-33.45,0-57.88,23.06-57.88,54.98s24.44,54.98,57.58,54.98c15.12,0,30.72-4.58,41.87-13.59v-48.51h-49.73Z"/>
  </g>
</svg>